<?xml version="1.0" encoding="utf-8"?>
<!-- Generator: Adobe Illustrator 24.3.0, SVG Export Plug-In . SVG Version: 6.00 Build 0)  -->
<svg version="1.1" id="Layer_1" xmlns="http://www.w3.org/2000/svg" xmlns:xlink="http://www.w3.org/1999/xlink" x="0px" y="0px"
	 viewBox="0 0 1920 1080" style="enable-background:new 0 0 1920 1080;" xml:space="preserve">
<style type="text/css">
	.st0{fill:#FFFFFF;}
</style>
<g>
	<rect x="320.5" y="154.5" width="284" height="174"/>
	<path class="st0" d="M604,155v173H321V155H604 M605,154H320v175h285V154L605,154z"/>
</g>
<g>
	<polygon points="1056.5,617.32 953.26,671.6 972.98,556.64 889.46,475.22 1004.88,458.45 1056.5,353.86 1108.12,458.45 
		1223.54,475.22 1140.02,556.64 1159.74,671.6 	"/>
	<path class="st0" d="M1056.5,354.99l51.05,103.45l0.23,0.47l0.52,0.08l114.16,16.59l-82.61,80.52l-0.38,0.37l0.09,0.52l19.5,113.7
		L1056.97,617l-0.47-0.24l-0.47,0.24l-102.11,53.68l19.5-113.7l0.09-0.52l-0.38-0.37l-82.61-80.52l114.16-16.59l0.52-0.08l0.23-0.47
		L1056.5,354.99 M1056.5,352.73L1004.55,458l-116.17,16.88l84.06,81.94l-19.84,115.7l103.9-54.62l103.9,54.62l-19.84-115.7
		l84.06-81.94L1108.45,458L1056.5,352.73L1056.5,352.73z"/>
</g>
<g>
	<g>
		<path class="st0" d="M1025.3,184.08c-43.05,43.51-86.11,87.02-128.07,131.6c-41.92,44.53-82.74,90.13-121.21,137.69
			c-18.02,22.27-36.11,44.76-51.17,69.17c-7.26,11.76-13.73,24.01-18.96,36.82c-4.69,11.51-8.67,23.55-9.47,36.04
			c-0.69,10.64,1.16,21.92,8.06,30.39c8.04,9.86,21.23,13.29,32.92,16.71c26.4,7.73,53.61,12.88,79.35,22.78
			c23.04,8.86,43.14,22.18,60.14,40.06c15.38,16.18,28.02,34.69,40.31,53.25c23.71,35.81,47.35,74.74,85.59,96.78
			c45.93,26.48,101.52,21.16,149.84,4.53c25.52-8.78,49.77-20.77,72.99-34.46c23.6-13.92,46.31-29.63,66.49-48.23
			c38.17-35.18,63.45-80.53,78.3-129.97c14.91-49.66,20.2-101.68,23.4-153.24c0.78-12.59,1.42-25.18,2.03-37.78
			c0.09-1.93-2.91-1.93-3,0c-2.46,51.16-5.45,102.61-15.92,152.87c-10.22,49.09-28.12,97.35-59.69,136.88
			c-17,21.29-37.53,39.49-59.68,55.27c-21.81,15.53-45.14,29.31-69.33,40.81c-46.62,22.17-101.82,37.73-153.1,23.58
			c-22.79-6.29-42.98-18.7-59.89-35.08c-15.57-15.09-28.31-32.78-40.37-50.71c-23.66-35.17-45.66-73.66-81.01-98.57
			c-21.24-14.97-46.17-23.15-71.04-29.83c-13.15-3.53-26.4-6.7-39.52-10.38c-12.34-3.46-27.32-6.51-36.08-16.66
			c-7.77-9-8.8-21.73-7.43-33.06c1.57-12.98,6.37-25.62,11.69-37.48c11.45-25.51,27.65-48.52,44.65-70.58
			c36.54-47.4,75.94-92.63,116.43-136.68c40.39-43.94,82.06-86.67,123.98-129.15c10.29-10.42,20.59-20.83,30.89-31.24
			C1028.78,184.83,1026.66,182.71,1025.3,184.08L1025.3,184.08z"/>
	</g>
</g>
<g>
	<g>
		<path class="st0" d="M1388.7,303.23c28.11-1.03,56.23-1.69,84.36-1.97c27.96-0.28,55.93-0.19,83.89,0.27
			c15.81,0.26,31.62,0.64,47.42,1.14c1.93,0.06,1.93-2.94,0-3c-28.12-0.88-56.24-1.4-84.37-1.53c-27.96-0.13-55.93,0.1-83.88,0.71
			c-15.81,0.34-31.61,0.81-47.42,1.39C1386.77,300.3,1386.76,303.3,1388.7,303.23L1388.7,303.23z"/>
	</g>
</g>
<g>
	<g>
		<path class="st0" d="M1611.7,435.86c0.98,29.45,1.23,58.93,0.74,88.4c-0.49,29.3-1.7,58.59-3.63,87.83
			c-1.09,16.52-2.42,33.02-3.98,49.51c-0.18,1.92,2.82,1.91,3,0c2.77-29.34,4.81-58.75,6.11-88.19c1.3-29.28,1.87-58.58,1.71-87.89
			c-0.09-16.56-0.41-33.11-0.96-49.66C1614.63,433.94,1611.63,433.93,1611.7,435.86L1611.7,435.86z"/>
	</g>
</g>
<g>
	<g>
		<path d="M472.18,622.03c-24.3,43.53-36.2,97.65-25.22,146.94c4.89,21.94,15.47,42.15,32,57.54c15.19,14.14,33.92,23.77,53.3,30.8
			c21.69,7.88,44.35,12.56,66.98,16.82c28.54,5.37,57.2,10.06,85.93,14.21c57.63,8.31,115.56,14.4,173.58,19.21
			c58.4,4.84,116.91,8.37,175.42,11.57c52.82,2.89,109.94,10.54,161.06-7.06c89.44-30.79,127.3-132.36,150.47-215.47
			c14.91-53.48,24.56-108.62,28.18-164.03c3.45-52.81,0.72-107.16-17.18-157.41c-15.93-44.73-44.38-83.58-79.06-115.66
			c-36.23-33.52-79-61.4-124.33-80.92c-43.91-18.91-92.47-29.69-140.32-23.36c-40.98,5.42-79.92,22.8-112.49,48.06
			c-32.78,25.43-59.46,58.98-75.73,97.23c-7.88,18.51-13.27,38.04-15.71,58.02c-3.31,27.06-1.54,54.57-6.1,81.5
			c-4.08,24.11-14.13,45.97-31.5,63.35c-15.65,15.65-35.44,26.8-56.3,33.89c-43.56,14.82-94.63,13.39-136.34-6.66
			c-10.85-5.21-21.07-11.77-30.11-19.74c-11.48-10.13-22.04-22.39-11.52-37.4c12.06-17.2,31.43-28.82,49.43-38.84
			c33.84-18.83,72.19-35.68,87.35-74.2c16.08-40.89,4.88-86.34,16.16-128.18c6.55-24.29,21.93-42.62,43.99-54.54
			c23.38-12.64,50.39-19.31,76.22-24.78c57.23-12.11,116.14-14.65,174.45-16.57c59.07-1.94,118.18-2.04,177.27-1.78
			c59.44,0.26,118.87,0.67,178.31,1.01c30,0.17,60,0.35,90,0.52c14.37,0.08,29.99-1.37,44.06,2.04
			c14.05,3.41,23.36,13.77,30.8,25.57c28.11,44.63,44.88,96.7,55.33,148.09c10.99,54.04,14.73,109.2,15.93,164.23
			c1.3,59.45-0.23,118.92,1.64,178.36c0.88,27.79,3.51,55.43,4.81,83.19c1.24,26.49,0.03,54.26-13.28,77.92
			c-21.38,38-64.59,55.62-93.67,86.49c-16.57,17.6-24.58,39.93-37.53,59.91c-12.85,19.82-32.09,32.57-54.46,39.43
			c-43.47,13.33-90.52,8.55-135.11,15.28c-56.55,8.53-111.23,24.86-169.02,21.72c-55.3-3-108.94-18.7-161.23-35.99
			c-51.96-17.17-103.38-35.61-156.64-48.53c-102.94-24.98-210.23-36.64-308.35-78.63c-23.91-10.23-48.23-21.73-68.89-37.71
			c-21.21-16.41-34.75-38.43-46.2-62.29c-18.18-37.87-37.33-86.58-82.46-98.61c-31-8.26-73.84,16.31-66.35,52.08
			c0.4,1.89,3.29,1.09,2.89-0.8c-4.76-22.75,14.17-41.53,34.53-47.73c23.31-7.1,46.27,3.88,62.88,20.13
			c34.85,34.11,42.27,85.66,73.98,121.97c16.42,18.8,38.34,31.63,60.41,42.7c23,11.55,46.92,21.21,71.29,29.47
			c49.58,16.8,100.87,27.76,152.1,38.16c52.33,10.62,104.87,20.63,156.2,35.49c52.61,15.22,103.73,35.1,156.27,50.56
			c50.92,14.98,103.8,25.8,157.14,22.71c56-3.24,109.82-21.59,165.77-25.47c40.81-2.83,85.76-0.63,122.99-20.33
			c19.33-10.22,32.32-26.25,42.51-45.28c6.08-11.35,11.53-23.11,19.05-33.63c6.39-8.94,14.15-16.81,22.4-24.03
			c30.88-27.03,71.48-46.92,87.58-87.06c9.22-22.99,9.35-48.4,7.95-72.76c-1.63-28.43-3.98-56.74-4.75-85.23
			c-3.06-112.24,5.05-225.74-17.48-336.54c-10.27-50.52-26.87-100.54-53.33-145.01c-5.33-8.96-11.45-17.98-20.08-24.09
			c-9.69-6.86-21.37-8.33-32.94-8.61c-29.66-0.7-59.38-0.38-89.05-0.55c-118.56-0.69-237.26-2.98-355.8-0.16
			c-56.36,1.34-113.18,3.08-169.01,11.41c-27.86,4.16-55.61,10.09-82.31,19.14c-21.54,7.3-43.31,17.53-57.77,35.71
			c-26.54,33.36-20.23,79.77-23.5,119.45c-1.83,22.18-6.7,44.52-20.59,62.47c-12.77,16.51-30.87,27.67-48.88,37.64
			c-17.64,9.76-35.94,18.59-52.15,30.68c-12.47,9.3-34.03,26.16-27.48,44.12c3.58,9.82,13.05,17.62,20.97,23.92
			c8.79,6.99,18.47,12.8,28.7,17.44c20.08,9.11,41.97,13.87,63.94,15.12c40.96,2.33,84.22-8.03,117.04-33.36
			c15.86-12.24,28.79-28.06,36.55-46.6c9.79-23.4,10.81-49.14,11.82-74.14c0.98-24.45,2.78-48.45,9.94-71.97
			c6.21-20.4,15.47-39.81,27.1-57.67c23.54-36.13,56.83-65.94,95.31-85.39c41.54-21,87.69-28.26,133.72-21.57
			c52.18,7.58,101.16,30.86,144.8,59.74c41.04,27.16,78.76,60.78,105.87,102.16c29.21,44.58,42.42,96.43,45.19,149.26
			c2.95,56.12-3.77,113.06-14.88,168.02c-10.46,51.78-25.06,103.95-47.36,151.97c-18.93,40.77-45.3,80.36-84.18,104.47
			c-46.76,28.99-102.79,26.24-155.57,23.43C952.58,911.81,835.5,905.05,719.28,890c-30.01-3.89-59.94-8.33-89.76-13.46
			c-24.69-4.24-49.54-8.45-73.74-15c-46.17-12.49-89.75-36.5-103.88-85.39c-14.52-50.25-2.13-107.8,22.87-152.61
			C475.71,621.85,473.12,620.34,472.18,622.03L472.18,622.03z"/>
	</g>
</g>
</svg>
